 <svg
        width="67"
        height="68"
        viewBox="0 0 67 68"
        fill="none"
        xmlns="http://www.w3.org/2000/svg"
    >
        <path
            d="M57.5667 13.9998H35.7C34.8159 13.9998 33.9681 14.351 33.343 14.9761C32.7179 15.6012 32.3667 16.4491 32.3667 17.3331C32.3667 18.2172 32.7179 19.065 33.343 19.6902C33.9681 20.3153 34.8159 20.6665 35.7 20.6665H57.5667C58.2562 20.6665 58.9176 20.9404 59.4051 21.428C59.8927 21.9156 60.1667 22.5769 60.1667 23.2665V25.8665H47.5667C46.6826 25.8665 45.8348 26.2177 45.2096 26.8428C44.5845 27.4679 44.2333 28.3158 44.2333 29.1998C44.2333 30.0839 44.5845 30.9317 45.2096 31.5568C45.8348 32.1819 46.6826 32.5331 47.5667 32.5331H55.4667L53.1333 34.8331C52.8209 35.143 52.5729 35.5117 52.4037 35.9179C52.2345 36.3241 52.1473 36.7598 52.1473 37.1998C52.1473 37.6398 52.2345 38.0755 52.4037 38.4817C52.5729 38.8879 52.8209 39.2566 53.1333 39.5665C53.4432 39.8789 53.8119 40.1269 54.2181 40.2961C54.6243 40.4653 55.06 40.5525 55.5 40.5525C55.94 40.5525 56.3757 40.4653 56.7819 40.2961C57.1881 40.1269 57.5568 39.8789 57.8667 39.5665L64.1333 33.2998C64.9002 32.5357 65.5115 31.6301 65.9333 30.6331V30.2998C66.4861 29.1894 66.793 27.9729 66.8333 26.7331V23.3998C66.8465 22.1729 66.6168 20.9556 66.1575 19.8178C65.6981 18.6801 65.0181 17.6446 64.1568 16.7708C63.2954 15.897 62.2697 15.2024 61.1386 14.7268C60.0076 14.2512 58.7936 14.0041 57.5667 13.9998V13.9998ZM5.86667 1.63314C5.55587 1.32234 5.18691 1.07581 4.78083 0.907605C4.37476 0.739404 3.93953 0.652832 3.5 0.652832C3.06047 0.652832 2.62525 0.739404 2.21917 0.907605C1.8131 1.07581 1.44413 1.32234 1.13334 1.63314C0.505657 2.26082 0.15303 3.11213 0.15303 3.9998C0.15303 4.88748 0.505657 5.73879 1.13334 6.36647L10.6333 15.8331C9.45273 16.679 8.49172 17.7952 7.83064 19.0883C7.16955 20.3815 6.82759 21.8141 6.83334 23.2665V26.5998C6.83429 27.8652 7.10711 29.1157 7.63334 30.2665V30.4665C8.0587 31.4714 8.66932 32.3873 9.43334 33.1665L27.4667 51.1665V63.9998C27.4655 64.5663 27.6088 65.1237 27.8829 65.6195C28.157 66.1152 28.553 66.5329 29.0333 66.8331C29.5638 67.1619 30.1759 67.3351 30.8 67.3331C31.3218 67.33 31.8356 67.2044 32.3 66.9665L44.1667 61.0331C44.7164 60.7561 45.1787 60.3323 45.5023 59.8087C45.8259 59.2851 45.9981 58.682 46 58.0665V51.3998L61.0333 66.4665C61.3432 66.7789 61.7119 67.0269 62.1181 67.1961C62.5243 67.3653 62.96 67.4525 63.4 67.4525C63.84 67.4525 64.2757 67.3653 64.6819 67.1961C65.0881 67.0269 65.4568 66.7789 65.7667 66.4665C66.0791 66.1566 66.3271 65.7879 66.4963 65.3817C66.6655 64.9755 66.7527 64.5398 66.7527 64.0998C66.7527 63.6598 66.6655 63.2241 66.4963 62.8179C66.3271 62.4117 66.0791 62.043 65.7667 61.7331L5.86667 1.63314ZM13.5 23.2665C13.496 22.7433 13.654 22.2317 13.9525 21.802C14.2509 21.3722 14.675 21.0454 15.1667 20.8665L15.4667 20.6665L20.6667 25.8665H13.5V23.2665ZM40.4 47.5665C40.0911 47.8779 39.8466 48.2473 39.6808 48.6534C39.5149 49.0596 39.4308 49.4945 39.4333 49.9331V55.9998L34.2333 58.5998V49.9331C34.2359 49.4945 34.1518 49.0596 33.9859 48.6534C33.82 48.2473 33.5756 47.8779 33.2667 47.5665L18.2 32.5331H27.3333L41.4 46.5998L40.4 47.5665Z"
            fill="#007aff"
        />
    </svg>