<svg width="40" height="40" viewBox="0 0 40 40" fill="none" xmlns="http://www.w3.org/2000/svg">
<path d="M13.5837 40.4102C12.8937 40.4102 12.3337 39.8397 12.3337 39.134V27.8795H1.25C0.56 27.8795 0 27.3091 0 26.6034C0 25.8976 0.56 25.3272 1.25 25.3272H13.5837C14.2737 25.3272 14.8337 25.8976 14.8337 26.6034V39.134C14.8337 39.8397 14.2737 40.4102 13.5837 40.4102ZM26.4162 40.3783C25.7262 40.3783 25.1662 39.8078 25.1662 39.1021V26.5089C25.1662 25.8032 25.7262 25.2328 26.4162 25.2328H38.69C39.38 25.2328 39.94 25.8032 39.94 26.5089C39.94 27.2146 39.38 27.7851 38.69 27.7851H27.6662V39.1021C27.6662 39.8078 27.1062 40.3783 26.4162 40.3783ZM13.5837 15.5875H1.31C0.62 15.5875 0.06 15.0171 0.06 14.3114C0.06 13.6057 0.62 13.0352 1.31 13.0352H12.3337V1.71822C12.3337 1.0125 12.8937 0.44206 13.5837 0.44206C14.2737 0.44206 14.8337 1.0125 14.8337 1.71822V14.3114C14.8337 15.0158 14.2737 15.5875 13.5837 15.5875ZM38.75 15.4931H26.4162C25.7262 15.4931 25.1662 14.9227 25.1662 14.2169V1.68632C25.1662 0.9806 25.7262 0.410156 26.4162 0.410156C27.1062 0.410156 27.6662 0.9806 27.6662 1.68632V12.9408H38.75C39.44 12.9408 40 13.5112 40 14.2169C40 14.9227 39.44 15.4931 38.75 15.4931Z" fill="white"/>
</svg>