<svg width="30" height="30" viewBox="0 0 30 30" fill="none" xmlns="http://www.w3.org/2000/svg">
<path fill-rule="evenodd" clip-rule="evenodd" d="M2.55054 0.782132C2.06238 0.293977 1.27093 0.293977 0.782773 0.782132C0.294618 1.27029 0.294618 2.06174 0.782773 2.5499L6.56858 8.33571H4.99999C3.15904 8.33571 1.66666 9.82741 1.66666 11.6675V18.3312C1.66666 20.1713 3.15904 21.663 4.99999 21.663H9.33357C9.76616 21.663 10.1871 21.8033 10.5332 22.0627L18 27.6603C20.1695 29.2867 23.2537 27.7797 23.3318 25.0989L27.4494 29.2166C27.9376 29.7047 28.729 29.7047 29.2172 29.2166C29.7054 28.7284 29.7054 27.937 29.2172 27.4488L2.55054 0.782132ZM23.3333 5.00389V18.2316L11.9646 6.86289L18 2.33843C20.1974 0.691086 23.3333 2.25831 23.3333 5.00389Z" fill="white"/>
</svg>
