<svg
        width="88"
        height="64"
        viewBox="0 0 88 64"
        fill="none"
        xmlns="http://www.w3.org/2000/svg"
    >
        <path
            d="M0.00978974 16.7018C-0.10158 14.2079 0.726815 13.3996 3.34455 13.3962C13.1187 13.3836 23.4421 13.2501 33.2163 13.2668C34.2232 13.2686 33.9034 13.328 34.613 12.4434C35.2548 11.6433 36.6389 11.0282 38.3125 11.0527C36.0465 8.82355 33.4657 6.01816 31 3.6479C30.3331 3.00673 29.4925 2.53758 28.8046 1.9139C28.4819 1.62152 28.2063 1.16387 28.1557 0.752526C28.1283 0.531892 28.6367 0.0311191 28.8788 0.0455083C29.3074 0.0710391 29.8208 0.298868 30.1187 0.606037C33.496 4.08947 36.8391 7.60402 40.4272 11.3568C44.0631 7.52068 47.437 3.94857 50.8378 0.400741C51.0671 0.161771 51.5254 -0.0417761 51.8311 0.00738694C52.1408 0.0572494 52.5875 0.417329 52.6227 0.685077C52.6693 1.03866 52.4819 1.54593 52.2088 1.79519C48.9442 4.7744 45.6448 7.71794 42.401 10.8955C44.2754 10.9385 45.6861 11.3934 46.4199 13.1196C46.5276 13.3726 47.447 13.3692 47.991 13.3701C57.8216 13.3856 67.6523 13.3795 77.4829 13.3881C80.0322 13.3904 80.9118 14.2392 80.8474 16.7018H0.00973821H0.00978974Z"
            fill="#03A9F4"
        />
        <path
            d="M10.1857 37.4337C9.72499 39.403 9.28492 41.3772 8.79264 43.339C8.61062 44.0644 8.80063 45.0793 7.48944 45.0741C6.24283 45.069 5.40109 44.5016 5.07661 43.3932C4.61536 41.8169 4.29481 40.2018 3.91096 38.6039C3.81088 38.188 3.69858 37.775 3.28469 37.3784C3.28469 39.4538 3.2849 41.5291 3.28469 43.6043C3.28433 45.1376 3.27073 46.6761 3.31567 48.2012C3.36823 49.9922 3.06623 50.224 1.17887 50.3014C0.863928 50.2819 0.487867 50.3276 0.0379028 50.2974V20.4744C2.87802 19.969 3.18409 20.1597 3.74636 22.7725C4.77116 27.5344 5.79127 32.2973 7.08782 37.113C7.37957 35.7947 7.68791 34.4797 7.95966 33.1576C8.66535 29.7258 9.35382 26.2908 10.0513 22.8575C10.5991 20.1609 10.7285 20.074 13.793 20.4183V50.0933C13.4021 50.1478 13.0798 50.2201 12.755 50.2339C10.4948 50.3281 10.5036 50.3244 10.5081 48.1731C10.5156 44.5677 10.5102 40.9624 10.5102 37.3572C10.402 37.3825 10.2939 37.4081 10.1857 37.4336L10.1857 37.4337Z"
            fill="#03A9F4"
        />
        <path
            d="M0.0646075 53.2471C0.720923 53.2471 1.27499 53.2471 1.82921 53.2471C27.4737 53.2452 53.1184 53.2373 78.7629 53.272C79.4994 53.2729 80.7172 52.6269 80.9143 54.0847C81.075 55.275 80.1247 56.4011 78.8035 56.6167C78.2507 56.7068 77.6812 56.7318 77.1192 56.732C52.7739 56.7397 28.4285 56.7415 4.08316 56.743C3.63139 56.743 3.17849 56.75 2.72816 56.7216C0.552039 56.5845 -0.195445 55.6829 0.0646075 53.2471Z"
            fill="#03A9F4"
        />
        <path
            d="M77.5882 20.3577H80.9372C80.9372 20.9721 80.9372 21.5513 80.9372 22.1306C80.9381 30.8306 80.9554 39.5307 80.9092 48.2304C80.9055 48.9359 81.5724 50.1474 79.9999 50.2347C78.6495 50.3099 77.5232 49.9959 77.1837 48.4889C76.4017 45.018 75.608 41.5497 74.815 38.0814C74.6604 37.405 74.4882 36.7325 74.0527 36.0813C74.0527 38.9894 74.0533 41.8974 74.0524 44.8055C74.052 45.6809 74.0453 46.5564 74.046 47.4318C74.0481 50.492 74.0488 50.492 70.7156 50.09V20.5026C73.5282 19.9152 74.1307 20.2645 74.7024 22.8984C75.591 26.9931 76.4502 31.0939 77.5882 35.1656V20.3577Z"
            fill="#03A9F4"
        />
        <path
            d="M60.3311 35.0132C60.3311 38.4004 60.3502 41.788 60.3212 45.1751C60.3103 46.4561 60.5659 47.5896 62.1312 47.5945C63.6795 47.5993 63.9739 46.4977 63.9695 45.2016C63.9469 38.5361 63.9432 31.8708 63.9742 25.2054C63.9799 23.962 63.6917 22.9121 62.2609 22.8738C60.779 22.834 60.2967 23.8127 60.3164 25.1791C60.3632 28.4566 60.3314 31.7351 60.3311 35.0132ZM67.3667 35.5142C67.3667 39.0184 67.3758 42.5229 67.3639 46.0274C67.3537 49.0602 65.8347 50.5232 62.6754 50.571C62.1109 50.5797 61.5439 50.6013 60.9819 50.5633C58.5581 50.3996 56.9788 48.8866 56.9649 46.53C56.9207 39.0287 56.9115 31.5269 56.9488 24.0256C56.961 21.5431 58.3609 20.176 60.8805 19.9678C61.6096 19.9075 62.3476 19.8881 63.0784 19.9192C65.8697 20.0375 67.3305 21.4542 67.3622 24.1796C67.4062 27.9574 67.3733 31.736 67.3733 35.5142H67.3667Z"
            fill="#03A9F4"
        />
        <path
            d="M26.0741 20.4917C29.27 19.9524 29.5328 20.1649 29.5298 23.0131C29.5226 30.3503 29.5198 37.6874 29.5221 45.0246C29.5222 45.6125 29.5757 46.2002 29.6147 46.9972H36.428C35.8523 49.7825 35.2824 50.2515 32.7246 50.2429C30.9179 50.237 29.1105 50.2195 27.3041 50.2475C26.4887 50.2601 26.0586 50.0559 26.0607 49.149C26.0824 39.6289 26.074 30.1088 26.074 20.4917H26.0741Z"
            fill="#03A9F4"
        />
        <path
            d="M37.5212 20.4406C40.6776 19.9652 40.9562 20.1737 40.9587 22.8891C40.9654 30.2298 40.9633 37.5708 40.9645 44.9115C40.9645 45.5095 40.9645 46.1073 40.9645 46.9633H47.7158C47.3806 49.6546 46.7916 50.2176 44.4515 50.2417C42.5308 50.2617 40.6067 50.3049 38.6915 50.2056C38.2852 50.1845 37.5725 49.5925 37.5704 49.2603C37.5095 39.6794 37.5212 30.0981 37.5212 20.4406Z"
            fill="#03A9F4"
        />
        <path
            d="M49.0347 20.4932C52.1474 20.0063 52.454 20.2383 52.4562 22.9313C52.4631 31.4618 52.4581 39.9926 52.4783 48.5233C52.4807 49.5213 52.5476 50.349 51.0428 50.2702C49.7321 50.2017 48.9876 50.044 49.0012 48.4573C49.0758 39.7631 49.0356 31.0683 49.0348 22.3736C49.0348 21.7345 49.0348 21.0954 49.0348 20.4932H49.0347Z"
            fill="#03A9F4"
        />
        <path
            d="M20.3187 50.2313C19.6019 50.2313 19.0946 50.2109 18.5895 50.2357C17.5426 50.2871 17.0656 49.8973 17.0686 48.8063C17.0934 39.4527 17.0792 30.0991 17.0821 20.7454C17.0821 20.6459 17.1564 20.5464 17.1972 20.4472C20.0226 19.927 20.3968 20.2072 20.398 22.8767C20.4013 31.5196 20.4015 40.1623 20.3982 48.8051C20.3982 49.2279 20.3523 49.6506 20.3187 50.2313V50.2313Z"
            fill="#03A9F4"
        />
        <path
            d="M64.7018 52.6504C64.4374 52.891 64.2683 53.0224 64.1939 53.0454C63.9265 53.2075 63.7765 53.4776 63.7442 53.8563L63.6797 54.3423C63.811 54.7428 64.0428 54.8919 64.3751 54.7895C64.4022 54.7812 64.4235 54.7494 64.4389 54.6938C64.4541 54.6387 64.4961 54.5554 64.564 54.444C64.6321 54.3328 64.6783 54.2118 64.7026 54.0812C64.7272 53.9511 64.7509 53.8642 64.7741 53.8208C64.8329 53.7957 64.8842 53.7528 64.928 53.692C64.9716 53.6317 65.0223 53.5817 65.0802 53.542C65.1383 53.5025 65.1912 53.4303 65.2389 53.3252C65.2862 53.2201 65.3339 53.1602 65.3814 53.1454L65.5099 53.1277L65.5505 53.1152C65.5912 53.1028 65.6387 53.0593 65.6926 52.9846C65.7466 52.9102 65.7974 52.8548 65.8453 52.8185C65.8932 52.782 65.937 52.7343 65.9773 52.6747C66.0176 52.6153 66.0633 52.5667 66.1143 52.5293C66.1656 52.4919 66.2233 52.4346 66.2875 52.3569L66.477 52.32C66.4907 52.3159 66.5707 52.2478 66.7176 52.1158C66.8644 51.9837 66.9887 51.9021 67.0905 51.8709L67.2122 51.8332C67.3481 51.7695 67.439 51.6839 67.4856 51.5754C67.5322 51.4673 67.5994 51.3996 67.6875 51.3722L67.7078 51.3661L67.9036 51.3492C67.9441 51.3366 68.048 51.2558 68.2154 51.1068C68.3827 50.9574 68.5713 50.8325 68.7805 50.7319C68.9896 50.6313 69.0921 50.5744 69.088 50.5613C69.1769 50.4469 69.2623 50.3772 69.3438 50.3522L69.6207 50.3101L69.7057 50.2624L69.7887 50.1066L70.0122 50.0377C70.0718 49.9691 70.1059 49.9258 70.1152 49.9087C70.183 49.8876 70.2713 49.8386 70.3803 49.7616L70.5659 49.7478L70.6269 49.7291L70.7968 49.6333L70.8779 49.6084C70.9935 49.5294 71.0785 49.4815 71.1327 49.4648C71.1869 49.448 71.2183 49.4527 71.227 49.4791C71.2465 49.5382 71.2096 49.6077 71.1162 49.6866C71.0229 49.7663 70.9726 49.8574 70.9657 49.961C70.9584 50.0645 70.9269 50.1556 70.8706 50.2338C70.8146 50.3131 70.7546 50.4487 70.6914 50.6418L70.5835 50.8593C70.3367 51.1522 70.2132 51.447 70.2136 51.743C70.1356 51.8465 70.0779 51.9548 70.0404 52.0677C70.0029 52.1805 69.9667 52.258 69.9326 52.3014C69.898 52.3446 69.8824 52.4162 69.8856 52.5164L69.795 52.7178C69.776 52.7959 69.6949 52.9474 69.5526 53.1718L69.6111 53.5551C69.6406 53.6906 69.5938 53.7811 69.4705 53.8259C69.3473 53.8712 69.2463 54.029 69.1672 54.2989C69.088 54.5691 68.9992 54.8332 68.9014 55.0911C68.8032 55.3491 68.7512 55.5549 68.7459 55.7083C68.7402 55.8618 68.7383 55.953 68.7402 55.9813C68.6971 56.0089 68.6658 56.0618 68.647 56.1399C68.528 56.278 68.4733 56.4066 68.4829 56.5265L68.4008 56.8556C68.3196 57.0179 68.2878 57.1253 68.305 57.1777L68.4586 57.5099C68.4008 57.629 68.3774 57.694 68.3884 57.7049C68.2273 57.8051 68.1362 58.0049 68.1151 58.3043C68.094 58.6036 68.0777 58.7927 68.0665 58.8722C68.0552 58.9516 68.0515 59.0196 68.0552 59.0763C67.9245 59.2467 67.8907 59.427 67.9531 59.6174C67.9787 59.6962 68.0105 59.7587 68.0479 59.8049C68.0184 59.8287 68.0045 59.8655 68.006 59.9153C67.9861 60.0372 67.9321 60.2418 67.8439 60.5292C67.7552 60.8167 67.764 61.1214 67.8692 61.443C67.9037 61.548 67.9166 61.6326 67.9078 61.6967C67.8991 61.7609 67.8997 61.8201 67.9104 61.875C67.9208 61.9295 67.9343 62.0499 67.9507 62.2361C67.9672 62.4231 67.9796 62.5292 67.9881 62.5555C68.1391 63.0151 68.3722 63.3408 68.6887 63.5324C69.0052 63.7239 69.3057 63.7761 69.5899 63.6885L69.7968 63.6028L69.8781 63.5778C70.0801 63.4432 70.1474 63.2742 70.0806 63.0705C70.0506 62.9787 70.0433 62.9 70.0589 62.8336C70.0745 62.7676 70.0672 62.6883 70.037 62.5962C70.0154 62.5307 69.9703 62.467 69.9016 62.4049C69.8328 62.3431 69.7943 62.2992 69.7856 62.2729C69.7727 62.2335 69.7699 62.1908 69.7773 62.1451L69.7996 61.5311L69.7216 61.0891C69.7098 60.666 69.6815 60.3642 69.637 60.1825C69.6603 60.1175 69.6771 60.0547 69.6867 59.9939L69.7016 59.9025C69.7805 59.7335 69.8257 59.4794 69.8375 59.1397C69.849 58.8 69.8646 58.5401 69.8839 58.3607C69.9033 58.1815 69.879 57.965 69.8107 57.7113C69.8894 57.7014 69.9668 57.4717 70.0427 57.0215C69.9723 56.7615 69.9504 56.5587 69.9774 56.4129C70.2766 55.7354 70.4082 55.3404 70.3716 55.2287L70.3594 55.1242C70.4132 54.8332 70.4346 54.6712 70.4236 54.6383C70.4193 54.6254 70.4656 54.5279 70.5624 54.3461L70.62 54.1116C70.6333 53.9486 70.6768 53.8084 70.7505 53.6918L70.6161 53.4188C70.5905 53.34 70.6078 53.2914 70.6686 53.2725L70.8108 53.2288L70.8875 53.0532L70.99 52.9565C71.1146 52.5641 71.1972 52.3506 71.2384 52.3165L71.2521 52.0518C71.2799 52 71.2872 51.9542 71.2744 51.9146C71.2594 51.8689 71.2564 51.8372 71.2654 51.82L71.3209 51.7161C71.338 51.6096 71.3892 51.4818 71.4744 51.3327C71.5693 51.3035 71.6311 51.2193 71.6601 51.0804C71.689 50.9414 71.7716 50.773 71.9079 50.5758C72.0445 50.3781 72.1358 50.2363 72.182 50.1497C72.228 50.0631 72.2617 50.0059 72.2821 49.9778C72.2691 49.9386 72.291 49.8344 72.3472 49.6649C72.3301 49.6124 72.2786 49.5524 72.1932 49.4848C72.1076 49.4173 72.053 49.3475 72.0295 49.2752C71.9907 49.1569 72.0773 49.058 72.2897 48.9782C72.5017 48.8983 72.6387 48.8377 72.6998 48.7976C72.761 48.7567 72.805 48.7324 72.8323 48.7242L73.0584 48.6977L73.3565 48.5841L74.1205 48.3921C74.1272 48.39 74.1682 48.3556 74.2432 48.2892C74.3085 48.2834 74.3479 48.2788 74.3614 48.2746L74.7646 48.1069L74.8458 48.0819C74.9136 48.061 74.9561 48.0551 74.9741 48.0639L75.4687 48.1068C75.527 48.1034 75.5967 48.1451 75.6776 48.232C75.7581 48.3195 75.8831 48.3368 76.0521 48.2845C76.3907 48.1804 76.5839 48.0992 76.6319 48.0409C76.6799 47.983 76.7317 47.9364 76.787 47.9009C76.8427 47.8659 76.8683 47.8418 76.8641 47.8286C76.9231 47.7815 76.9565 47.7131 76.9645 47.624L76.9203 47.4207L76.9262 47.2344L76.7857 46.9421C76.747 46.8238 76.6528 46.7247 76.5034 46.6441C76.354 46.5638 76.1674 46.5579 75.9441 46.6264L75.7338 46.7348L75.4732 46.7934L74.8085 47.085L74.7281 47.0446C74.6164 47.1587 74.5334 47.224 74.4794 47.2408L74.2702 47.251C74.2429 47.2593 74.2101 47.2947 74.1709 47.3574C74.1258 47.357 74.0964 47.3587 74.0831 47.3628L73.384 47.6865L73.3638 47.6928C73.3011 47.6835 73.263 47.6806 73.2495 47.6848L73.2089 47.6973L73.1101 47.7711L72.8063 47.7997C72.7927 47.8039 72.712 47.8651 72.5644 47.9827L72.2875 48.0246C71.8539 48.1581 71.588 48.262 71.4892 48.3358C71.3903 48.4097 71.3341 48.4486 71.3206 48.4527L71.2128 48.4643L71.1111 48.4956C70.9418 48.5478 70.8274 48.6194 70.7677 48.7099L70.6329 48.7081L70.2488 48.9348L70.1369 48.9692C70.0465 49.0119 69.9839 49.0707 69.9492 49.1464C69.9177 49.142 69.895 49.1414 69.8816 49.1454L69.6547 49.2374C69.5463 49.2709 69.4158 49.3401 69.264 49.4445C69.147 49.4517 69.0819 49.4572 69.0681 49.4614L69.0073 49.4803C68.9328 49.5031 68.8606 49.5904 68.7912 49.7418L68.7112 49.7016C68.5402 49.8411 68.4211 49.9212 68.3535 49.9419C68.2452 49.9754 68.1624 50.0354 68.1048 50.1215C68.0475 50.2081 67.9782 50.2635 67.8969 50.2887L67.8563 50.3011C67.7868 50.2937 67.7451 50.2921 67.7317 50.2962L66.8981 50.8568C66.8092 50.9277 66.7289 50.9831 66.6562 51.0235C66.5838 51.0641 66.5267 51.1231 66.4851 51.2008C66.4435 51.2787 66.3589 51.35 66.231 51.4148C66.1031 51.4796 66.0133 51.5522 65.9615 51.6334C65.9099 51.7142 65.8598 51.766 65.8113 51.7882C65.7625 51.8103 65.7072 51.8636 65.6454 51.9476C65.5834 52.0318 65.4949 52.0916 65.3798 52.1271L65.1702 52.1699L65.0427 52.361L64.7017 52.6505L64.7018 52.6504Z"
            stroke="white"
            stroke-miterlimit="10"
        />
        <path
            d="M75.2098 53.3585C75.3563 53.8051 75.6529 53.9594 76.0996 53.8215C76.4043 53.7277 76.544 53.5292 76.5193 53.2261C76.4942 52.9229 76.4891 52.7366 76.5037 52.6672L76.5817 52.3936C76.6147 52.2678 76.7003 52.1023 76.838 51.8974C76.976 51.6921 77.1638 51.4299 77.4023 51.1108L77.6225 50.7934C77.7186 50.5182 77.8207 50.3637 77.9291 50.3304L78.1224 50.2708L78.1467 50.2091C78.2033 50.0182 78.3323 49.8771 78.5337 49.7862C78.5987 49.8024 78.6431 49.8466 78.6666 49.9187C78.6709 49.9319 78.666 50.0311 78.6523 50.2159L78.7113 50.3278C78.7198 50.3542 78.708 50.4083 78.6753 50.4907L78.612 50.6728C78.6324 50.9629 78.6152 51.2339 78.5597 51.4859C78.5044 51.7379 78.491 51.9066 78.5189 51.9919L78.6315 52.1308C78.5096 52.1682 78.4799 52.2823 78.5422 52.4725C78.3884 52.7081 78.3339 52.8945 78.3791 53.0323L78.4188 53.0853C78.5239 53.1106 78.5854 53.1497 78.6023 53.202C78.6198 53.2548 78.5505 53.3048 78.3946 53.3528C78.3744 53.3592 78.3663 53.4142 78.3703 53.5177C78.3746 53.6214 78.3401 53.7892 78.2673 54.0212C78.194 54.2535 78.1644 54.4358 78.1782 54.569C78.192 54.702 78.1808 54.7977 78.144 54.856C78.1071 54.9144 78.1003 54.9904 78.1236 55.0845C78.147 55.1786 78.1522 55.262 78.1387 55.3347C78.1253 55.4077 78.1294 55.4768 78.1509 55.5425C78.1639 55.5817 78.1877 55.6325 78.2228 55.6937C78.0804 55.7595 78.0286 55.8511 78.0674 55.9693L78.1778 56.2387C78.1953 56.2915 78.1604 56.3564 78.0741 56.4334C78.0543 56.5554 78.053 56.6423 78.0702 56.6949L78.1593 56.8302C78.1808 56.8957 78.1906 56.9938 78.1888 57.1246C78.1447 57.2178 78.1528 57.3562 78.2133 57.5397C78.2261 57.5791 78.2131 57.6249 78.1741 57.6767C78.1351 57.7285 78.1243 57.7805 78.1417 57.8328C78.1544 57.8723 78.1836 57.9106 78.2293 57.947C78.2747 57.9836 78.2996 58.0085 78.3041 58.0217L78.3104 58.0411C78.3391 58.3794 78.3603 58.5679 78.3732 58.6076C78.4593 58.8701 78.6417 59.1769 78.9211 59.5282C79.2002 59.8796 79.4172 60.0639 79.5722 60.0812C79.5856 60.077 79.6151 60.088 79.6609 60.1133C79.7068 60.1393 79.7864 60.1668 79.9007 60.1968L80.2835 60.3062C80.3196 60.2807 80.3749 60.2564 80.4496 60.2334C80.7341 60.1459 80.9415 59.9482 81.0718 59.6404C81.2002 59.6007 81.2592 59.5413 81.2479 59.4616C81.2368 59.3821 81.2542 59.2989 81.3004 59.2124L81.4404 58.8548C81.3715 58.6447 81.4183 58.5145 81.5809 58.4645L82.0342 57.1864L82.1992 56.4957C82.3371 56.1209 82.4165 55.9191 82.4374 55.8913L82.3952 55.7631L82.411 55.6066C82.488 55.5683 82.5253 55.5006 82.5233 55.4038C82.5214 55.3066 82.537 55.2352 82.5703 55.1888C82.6035 55.1425 82.6273 55.0952 82.6413 55.0477C82.6215 55.0321 82.6389 54.9778 82.6942 54.8847C82.7494 54.7922 82.8156 54.6579 82.8923 54.4823C82.888 54.4694 82.8854 54.4159 82.8847 54.3221L82.9603 54.2122C82.9738 54.208 82.9888 54.0949 83.0057 53.8728C83.1124 53.7895 83.1682 53.6925 83.1732 53.5826C83.1782 53.4726 83.1947 53.3918 83.2221 53.34L83.2541 53.2324C83.278 53.1237 83.2983 53.0598 83.3142 53.0404L83.5037 53.0037C83.5511 52.9891 83.567 52.8903 83.5516 52.707C83.5364 52.5237 83.5529 52.3922 83.6014 52.3123C83.7237 52.2312 83.7645 52.1282 83.7235 52.0035C83.7471 51.9384 83.7981 51.8326 83.8765 51.6852L84.007 51.5365L84.0558 51.4131C84.0743 51.3786 84.1209 51.2542 84.1959 51.0391C84.2709 50.8245 84.3516 50.6785 84.4383 50.6013L84.4752 50.3729C84.5398 50.2518 84.5707 50.1755 84.5679 50.1439C84.5649 50.1124 84.5939 50.0582 84.6545 49.9815C84.715 49.9054 84.7752 49.7872 84.8348 49.6279C84.8946 49.4687 84.9649 49.2968 85.0462 49.113L85.1477 49.0816L85.1753 49.0297C85.18 48.8619 85.2524 48.7077 85.3925 48.567C85.5328 48.4261 85.6419 48.2697 85.7197 48.0975C85.7975 47.9254 85.8857 47.7682 85.9842 47.6255C86.0831 47.4833 86.1509 47.3666 86.1882 47.2753C86.2257 47.1845 86.2568 47.1205 86.2819 47.0838L86.2626 47.0246L86.27 46.9791L86.392 46.9415L86.4399 46.8834C86.5457 46.7281 86.6669 46.6145 86.8039 46.5434C86.9409 46.4725 87.0617 46.3919 87.1664 46.3018L87.3048 46.2807C87.413 46.2472 87.519 46.0989 87.623 45.8355C87.7269 45.5721 87.7487 45.3487 87.6884 45.1648L87.5616 44.8463C87.527 44.7414 87.4434 44.6171 87.3107 44.4737C87.1779 44.3301 87.0569 44.263 86.9478 44.271C86.8387 44.2795 86.7604 44.28 86.7137 44.2727C86.6665 44.2657 86.6088 44.2725 86.5413 44.2933C86.46 44.3184 86.3683 44.3684 86.266 44.4431L86.0399 44.4697C85.9248 44.5052 85.7448 44.6724 85.4999 44.9719C85.4608 45.0565 85.4038 45.1335 85.3297 45.2035C85.2558 45.2731 85.1032 45.4448 84.8725 45.7181L84.9605 45.9188L84.8646 46.035L84.6041 46.0938C84.5495 46.1322 84.5393 46.2367 84.5725 46.407C84.3444 46.644 84.2035 46.8335 84.1497 46.9765C84.0961 47.1196 84.0389 47.2584 83.9786 47.3926C83.7442 47.7465 83.6391 47.9599 83.6629 48.0321C83.6886 48.1109 83.6618 48.2057 83.5827 48.3168C83.5036 48.428 83.4727 48.5099 83.4898 48.5624C83.5071 48.615 83.575 48.6407 83.6944 48.6402C83.6975 48.7406 83.6717 48.799 83.6177 48.8158L83.3674 48.8712C83.3489 48.906 83.3044 48.963 83.2337 49.0426L83.2132 49.0486L83.3021 49.1838C83.3064 49.197 83.2713 49.2369 83.1963 49.3032C83.1215 49.3696 83.1015 49.4556 83.1358 49.5606C83.0668 49.6901 83.0367 49.7682 83.0452 49.7945L83.0969 49.952L83.0489 50.0103C82.9955 49.9831 82.9553 49.9739 82.9283 49.9822C82.9012 49.9904 82.8056 50.1865 82.6413 50.5695C82.4769 50.9526 82.4013 51.1639 82.4142 51.2031C82.4337 51.2623 82.4922 51.2875 82.5902 51.279C82.688 51.2706 82.7478 51.2995 82.7693 51.3649C82.7778 51.3911 82.7464 51.444 82.6759 51.5237C82.6366 51.4491 82.6032 51.416 82.5764 51.4242C82.4813 51.4534 82.3889 51.5473 82.2987 51.7051L82.2582 51.7177C82.1767 51.7427 82.1311 51.8199 82.1212 51.9495C82.1116 52.079 82.0427 52.3009 81.9143 52.6149C81.786 52.9293 81.7157 53.1587 81.7032 53.3034C81.691 53.448 81.6427 53.6365 81.5583 53.8684C81.4738 54.1007 81.4585 54.2989 81.5122 54.463C81.5209 54.4889 81.5323 54.5002 81.5458 54.4959C81.6442 54.5236 81.7086 54.583 81.7388 54.675C81.7624 54.7474 81.7472 54.7916 81.693 54.8084C81.6793 54.8125 81.6522 54.7976 81.6108 54.7632C81.5698 54.7288 81.5119 54.723 81.4374 54.7461C81.3968 54.7585 81.3704 54.8157 81.3589 54.9166C81.3472 55.0178 81.3143 55.1675 81.2596 55.3647C81.0805 55.6151 81.0143 55.8126 81.0617 55.9569L80.8579 56.5295L80.5815 57.6336C80.5805 57.7208 80.4943 57.9244 80.3231 58.2446C80.2435 58.2982 80.2034 58.3918 80.2025 58.5258C80.2019 58.6599 80.1764 58.7526 80.1262 58.8042C80.0761 58.856 80.0288 58.9336 79.9848 59.0376C79.9406 59.1416 79.8864 59.2105 79.8231 59.2445L79.802 59.3159C79.7619 59.285 79.7356 59.2497 79.7225 59.2105C79.6923 59.1185 79.6589 59.0386 79.6216 58.9704C79.6271 58.8965 79.6257 58.8463 79.6169 58.8202L79.5449 58.6689L79.5029 58.5407C79.4857 58.4883 79.4851 58.407 79.5014 58.297C79.5175 58.1876 79.5139 58.0512 79.4903 57.8886C79.4669 57.7259 79.4623 57.6208 79.4763 57.5731L79.5089 57.4331L79.4151 57.1476L79.4987 56.7206L79.4758 56.4456C79.5156 56.1805 79.5396 55.9925 79.548 55.8813L79.6111 54.5393C79.6494 54.3827 79.6438 54.2292 79.5942 54.0781C79.5814 54.0387 79.6158 53.9792 79.698 53.8999C79.7798 53.82 79.8017 53.6313 79.7633 53.3322L79.842 53.0259C79.8975 52.9003 79.9235 52.831 79.919 52.8179C79.8838 52.6192 79.92 52.3659 80.0276 52.0578L80.1247 51.6377C80.1674 51.4946 80.1778 51.3902 80.1563 51.3243L80.1997 51.1158C80.1901 50.9959 80.2018 50.895 80.2344 50.8124C80.2671 50.7301 80.333 50.4985 80.4315 50.1173C80.5303 49.7363 80.5666 49.5065 80.5411 49.4277C80.5279 49.3883 80.5105 49.3577 80.4884 49.3357C80.6496 49.2135 80.6636 48.9492 80.53 48.542C80.4438 48.2794 80.271 48.1213 80.0109 48.0678C79.7511 48.0142 79.5952 48.0097 79.5427 48.0549L77.6219 49.6659C77.5542 49.687 77.4617 49.7804 77.3446 49.9464L77.2722 50.0663C77.0928 50.2012 76.9662 50.3486 76.892 50.5088C76.8175 50.6691 76.7364 50.7737 76.648 50.8224C76.5597 50.8717 76.4921 50.9666 76.4451 51.1073C76.398 51.2486 76.3362 51.338 76.2591 51.3761C76.1053 51.6117 76.0268 51.7697 76.0236 51.8501C75.9692 51.8669 75.8697 51.984 75.7251 52.2021L75.5352 52.51C75.2664 52.9181 75.1581 53.2009 75.2096 53.3584L75.2098 53.3585Z"
            stroke="white"
            stroke-miterlimit="10"
        />
        <path
            fillRule="evenodd"
            clipRule="evenodd"
            d="M69.8375 59.1399C69.849 58.8002 69.8646 58.5404 69.8839 58.3609C69.9034 58.1817 69.879 57.9653 69.8108 57.7115C69.8894 57.7016 69.9669 57.472 70.0427 57.0218C70.0143 56.9165 69.9938 56.8206 69.9812 56.7341C69.4644 56.7343 68.9478 56.7344 68.431 56.7345L68.4008 56.8558C68.3195 57.0182 68.2878 57.1256 68.305 57.1779L68.4585 57.5101C68.4008 57.6292 68.3774 57.6942 68.3883 57.7052C68.2272 57.8054 68.1361 58.0051 68.1151 58.3046C68.094 58.6038 68.0776 58.7929 68.0665 58.8725C68.0552 58.9519 68.0515 59.0198 68.0552 59.0765C67.9245 59.2469 67.8907 59.4273 67.9531 59.6176C67.9787 59.6965 68.0104 59.7589 68.0479 59.8051C68.0184 59.8289 68.0045 59.8658 68.0059 59.9156C67.9861 60.0374 67.9321 60.242 67.8439 60.5294C67.7552 60.817 67.7639 61.1216 67.8692 61.4432C67.9037 61.5483 67.9165 61.6328 67.9078 61.6969C67.8991 61.7611 67.8996 61.8204 67.9103 61.8752C67.9208 61.9297 67.9343 62.0501 67.9507 62.2363C67.9672 62.4234 67.9796 62.5295 67.9881 62.5558C68.1391 63.0154 68.3722 63.341 68.6887 63.5327C69.0051 63.7242 69.3057 63.7763 69.5899 63.6887L69.7968 63.6031L69.8781 63.578C70.08 63.4434 70.1474 63.2745 70.0806 63.0708C70.0506 62.979 70.0433 62.9002 70.0588 62.8338C70.0745 62.7678 70.0672 62.6886 70.0369 62.5965C70.0154 62.531 69.9703 62.4673 69.9016 62.4052C69.8328 62.3433 69.7943 62.2994 69.7856 62.2731C69.7727 62.2337 69.7699 62.191 69.7773 62.1454L69.7996 61.5314L69.7216 61.0893C69.7097 60.6662 69.6815 60.3645 69.637 60.1827C69.6603 60.1177 69.6771 60.055 69.6867 59.9942L69.7016 59.9027C69.7805 59.7338 69.8257 59.4797 69.8374 59.1399H69.8375Z"
            fill="white"
        />
        <path
            fillRule="evenodd"
            clipRule="evenodd"
            d="M68.4311 56.7346C68.9478 56.7345 69.4645 56.7344 69.9813 56.7342C69.9628 56.607 69.9615 56.5 69.9775 56.4133C70.2767 55.7358 70.4083 55.3408 70.3718 55.229L70.3595 55.1245C70.4133 54.8335 70.4347 54.6715 70.4237 54.6386C70.4195 54.6257 70.4657 54.5282 70.5626 54.3464L70.6201 54.1119C70.6335 53.9489 70.6769 53.8088 70.7506 53.6922L70.6163 53.4192C70.5907 53.3404 70.6079 53.2918 70.6688 53.2729L70.7022 53.2626C70.3236 53.2622 69.945 53.2618 69.5663 53.2615L69.6112 53.5555C69.6407 53.691 69.5939 53.7814 69.4706 53.8262C69.3474 53.8716 69.2465 54.0294 69.1673 54.2993C69.0881 54.5694 68.9993 54.8335 68.9015 55.0915C68.8033 55.3495 68.7513 55.5553 68.746 55.7086C68.7403 55.8621 68.7384 55.9534 68.7403 55.9816C68.6972 56.0093 68.6659 56.0622 68.6471 56.1403C68.5281 56.2784 68.4734 56.407 68.483 56.5269L68.4311 56.7347L68.4311 56.7346Z"
            fill="white"
        />
        <path
            fillRule="evenodd"
            clipRule="evenodd"
            d="M69.5662 53.2613C69.9449 53.2616 70.3234 53.262 70.7021 53.2624L70.8108 53.2289L70.8875 53.0533L70.99 52.9566C71.1146 52.5642 71.1971 52.3507 71.2384 52.3166L71.2521 52.0519C71.2799 52.0001 71.2872 51.9543 71.2743 51.9147C71.2593 51.869 71.2564 51.8373 71.2654 51.8201L71.3209 51.7162C71.338 51.6097 71.3892 51.4819 71.4744 51.3328C71.5693 51.3036 71.6311 51.2194 71.66 51.0805C71.689 50.9415 71.7716 50.7731 71.9079 50.5759C72.0024 50.4391 72.0753 50.329 72.1265 50.2455C71.7908 50.2175 71.3964 50.1716 70.9333 50.116C70.9177 50.158 70.8969 50.1973 70.8706 50.2338C70.8146 50.313 70.7546 50.4487 70.6914 50.6417L70.5835 50.8593C70.3366 51.1522 70.2132 51.447 70.2136 51.743C70.1356 51.8464 70.0779 51.9548 70.0404 52.0676C70.0029 52.1804 69.9667 52.258 69.9325 52.3014C69.898 52.3445 69.8824 52.4161 69.8855 52.5164L69.795 52.7178C69.776 52.7959 69.6949 52.9473 69.5526 53.1717L69.5662 53.2611V53.2613Z"
            fill="white"
        />
        <path
            fillRule="evenodd"
            clipRule="evenodd"
            d="M70.9333 50.1162C71.3965 50.1718 71.7908 50.2177 72.1265 50.2457C72.1493 50.2085 72.1678 50.1767 72.182 50.15C72.228 50.0634 72.2617 50.0062 72.2821 49.9781C72.2691 49.9389 72.291 49.8347 72.3472 49.6652C72.3301 49.6126 72.2786 49.5527 72.1932 49.4851C72.1076 49.4176 72.053 49.3478 72.0295 49.2754C71.9907 49.1572 72.0773 49.0583 72.2897 48.9785C72.5017 48.8986 72.6387 48.838 72.6997 48.7979C72.761 48.757 72.805 48.7327 72.8323 48.7245L73.0584 48.698L73.3565 48.5844L74.0409 48.4124C74.0465 48.1271 74.0463 47.8018 74.0461 47.4317C74.0461 47.4145 74.0461 47.3973 74.046 47.3801L73.3841 47.6866L73.3639 47.693C73.3012 47.6836 73.2631 47.6808 73.2496 47.6849L73.209 47.6975L73.1102 47.7712L72.8064 47.7999C72.7928 47.804 72.7121 47.8652 72.5645 47.9829L72.2876 48.0248C71.854 48.1583 71.5881 48.2621 71.4893 48.3359C71.3904 48.4099 71.3342 48.4487 71.3207 48.4529L71.2129 48.4644L71.1112 48.4957C70.9419 48.5479 70.8275 48.6195 70.7678 48.7101L70.7157 48.7094V49.6793L70.7969 49.6335L70.878 49.6085C70.9936 49.5296 71.0786 49.4817 71.1328 49.465C71.1871 49.4482 71.2184 49.4529 71.2271 49.4793C71.2466 49.5384 71.2097 49.6078 71.1163 49.6868C71.023 49.7665 70.9727 49.8576 70.9658 49.9612C70.9619 50.0164 70.9511 50.0681 70.9334 50.1162L70.9333 50.1162Z"
            fill="white"
        />
        <path
            fillRule="evenodd"
            clipRule="evenodd"
            d="M74.7645 48.1072L74.8458 48.0822C74.9135 48.0613 74.956 48.0554 74.974 48.0642L75.4687 48.1071C75.527 48.1037 75.5966 48.1454 75.6775 48.2323C75.7581 48.3198 75.883 48.3371 76.0521 48.2848C76.3907 48.1807 76.5839 48.0995 76.6318 48.0412C76.6798 47.9833 76.7316 47.9367 76.787 47.9012C76.8426 47.8662 76.8682 47.8421 76.864 47.8289C76.923 47.7818 76.9565 47.7134 76.9644 47.6243L76.9202 47.421L76.923 47.3339C76.908 47.2673 76.8929 47.2007 76.8779 47.1342L76.7856 46.9423C76.7469 46.824 76.6527 46.7249 76.5033 46.6443C76.3539 46.564 76.1674 46.5581 75.944 46.6267L75.7337 46.735L75.4731 46.7937L74.8084 47.0852L74.728 47.0449C74.6163 47.1589 74.5333 47.2243 74.4793 47.241L74.2701 47.2513C74.2428 47.2595 74.21 47.295 74.1708 47.3576C74.1257 47.3573 74.0964 47.3589 74.083 47.363L74.0459 47.3802C74.0459 47.3974 74.0459 47.4146 74.0459 47.4318C74.0462 47.8019 74.0464 48.1272 74.0407 48.4125L74.1203 48.3925C74.127 48.3904 74.168 48.356 74.243 48.2896C74.3083 48.2838 74.3477 48.2792 74.3613 48.275L74.7644 48.1073L74.7645 48.1072Z"
            fill="white"
        />
        <path
            fillRule="evenodd"
            clipRule="evenodd"
            d="M70.1152 49.9089C70.1829 49.8878 70.2713 49.8389 70.3802 49.7619L70.5659 49.748L70.6269 49.7293L70.7155 49.6793V48.7093L70.6328 48.7083L70.2487 48.935L70.1368 48.9694C70.0464 49.012 69.9838 49.0709 69.9491 49.1466C69.9176 49.1421 69.8949 49.1416 69.8816 49.1456L69.6546 49.2376C69.5462 49.271 69.4157 49.3403 69.2639 49.4446C69.1469 49.4518 69.0818 49.4574 69.068 49.4616L69.0072 49.4805C68.9327 49.5033 68.8606 49.5906 68.7911 49.7419L68.7111 49.7018C68.5402 49.8412 68.421 49.9213 68.3534 49.9421C68.2451 49.9755 68.1623 50.0356 68.1047 50.1217C68.0474 50.2082 67.9782 50.2636 67.8968 50.2889L67.8562 50.3013C67.7868 50.2939 67.745 50.2923 67.7316 50.2964L66.898 50.8569C66.8091 50.9278 66.7288 50.9833 66.6561 51.0237C66.5837 51.0642 66.5266 51.1232 66.485 51.201C66.4434 51.2789 66.3588 51.3502 66.2309 51.415C66.103 51.4798 66.0132 51.5524 65.9614 51.6336C65.9098 51.7144 65.8597 51.7662 65.8113 51.7884C65.7625 51.8105 65.7072 51.8638 65.6453 51.9478C65.5833 52.032 65.4948 52.0918 65.3797 52.1272L65.1701 52.17L65.0426 52.3612L64.7016 52.6507C64.4373 52.8913 64.2682 53.0227 64.1938 53.0456C64.0998 53.1026 64.0203 53.1729 63.9554 53.2566C64.3946 53.2569 64.8338 53.2573 65.2729 53.2576C65.309 53.1942 65.3452 53.157 65.3813 53.1457L65.5098 53.1279L65.5504 53.1155C65.591 53.1031 65.6386 53.0595 65.6924 52.9848C65.7465 52.9105 65.7973 52.8551 65.8452 52.8188C65.8931 52.7822 65.9369 52.7345 65.9772 52.675C66.0175 52.6156 66.0631 52.567 66.1142 52.5296C66.1654 52.4922 66.2231 52.4349 66.2874 52.3572L66.4769 52.3203C66.4906 52.3161 66.5706 52.2481 66.7174 52.116C66.8643 51.9839 66.9886 51.9024 67.0903 51.8711L67.2121 51.8335C67.3479 51.7698 67.4389 51.6842 67.4855 51.5756C67.5321 51.4675 67.5993 51.3998 67.6874 51.3725L67.7076 51.3663L67.9035 51.3495C67.9439 51.3369 68.0478 51.2561 68.2153 51.107C68.3826 50.9577 68.5711 50.8328 68.7803 50.7322C68.9895 50.6316 69.092 50.5747 69.0879 50.5616C69.1767 50.4471 69.2621 50.3775 69.3437 50.3525L69.6206 50.3104L69.7056 50.2627L69.7886 50.1068L70.012 50.0379C70.0717 49.9694 70.1058 49.926 70.1151 49.9089L70.1152 49.9089Z"
            fill="white"
        />
        <path
            fillRule="evenodd"
            clipRule="evenodd"
            d="M64.7026 54.0812C64.7272 53.9512 64.7509 53.8642 64.7741 53.8209C64.8329 53.7957 64.8842 53.7528 64.928 53.692C64.9716 53.6317 65.0223 53.5817 65.0802 53.5421C65.1383 53.5025 65.1912 53.4303 65.2389 53.3252C65.2503 53.3001 65.2616 53.2774 65.273 53.2574C64.8339 53.257 64.3947 53.2567 63.9555 53.2563C63.8355 53.4107 63.7651 53.6107 63.7442 53.8563L63.6797 54.3423C63.811 54.7429 64.0428 54.8919 64.3751 54.7895C64.4022 54.7813 64.4235 54.7494 64.4389 54.6938C64.4541 54.6387 64.4961 54.5554 64.564 54.444C64.6321 54.3328 64.6783 54.2119 64.7026 54.0812Z"
            fill="white"
        />
        <path
            fillRule="evenodd"
            clipRule="evenodd"
            d="M80.8582 56.5295L80.5818 57.6337C80.5807 57.7208 80.4945 57.9244 80.3234 58.2446C80.2437 58.2982 80.2036 58.3918 80.2027 58.5258C80.2021 58.6599 80.1766 58.7526 80.1264 58.8042C80.0763 58.856 80.029 58.9336 79.985 59.0376C79.9408 59.1416 79.8866 59.2105 79.8234 59.2445L79.8022 59.3159C79.7621 59.285 79.7358 59.2497 79.7228 59.2105C79.6925 59.1185 79.6591 59.0386 79.6218 58.9704C79.6274 58.8965 79.6259 58.8463 79.6172 58.8202L79.5451 58.6689L79.5032 58.5407C79.4859 58.4883 79.4853 58.407 79.5017 58.2971C79.5177 58.1876 79.5141 58.0512 79.4905 57.8886C79.4671 57.7259 79.4625 57.6208 79.4766 57.5731L79.5091 57.4332L79.4153 57.1476L79.4989 56.7206L79.476 56.4456C79.4776 56.4353 79.4791 56.4251 79.4806 56.4149C79.2701 56.5086 79.0429 56.5776 78.8036 56.6167C78.5629 56.6559 78.3191 56.6828 78.0742 56.7007L78.1593 56.83C78.1809 56.8955 78.1907 56.9935 78.1889 57.1244C78.1448 57.2176 78.1529 57.356 78.2134 57.5395C78.2262 57.5789 78.2132 57.6246 78.1742 57.6764C78.1352 57.7282 78.1244 57.7802 78.1417 57.8326C78.1545 57.872 78.1837 57.9103 78.2293 57.9467C78.2748 57.9834 78.2997 58.0082 78.3041 58.0214L78.3104 58.0408C78.3392 58.3791 78.3604 58.5677 78.3732 58.6073C78.4593 58.8699 78.6418 59.1767 78.9212 59.5279C79.2003 59.8794 79.4172 60.0636 79.5723 60.0809C79.5856 60.0768 79.6151 60.0878 79.661 60.1131C79.7068 60.139 79.7865 60.1665 79.9008 60.1966L80.2835 60.306C80.3196 60.2805 80.375 60.2562 80.4496 60.2331C80.7342 60.1457 80.9415 59.9479 81.0718 59.6402C81.2003 59.6005 81.2593 59.5411 81.248 59.4614C81.2368 59.3818 81.2543 59.2987 81.3005 59.2122L81.4405 58.8546C81.3716 58.6444 81.4184 58.5143 81.581 58.4643L82.0343 57.1861L82.1993 56.4955C82.3372 56.1206 82.4166 55.9189 82.4374 55.891L82.3953 55.7629L82.411 55.6063C82.4881 55.568 82.5254 55.5003 82.5233 55.4035C82.5215 55.3064 82.5371 55.235 82.5703 55.1885C82.6035 55.1423 82.6273 55.095 82.6414 55.0474C82.6215 55.0318 82.639 54.9776 82.6943 54.8844C82.7494 54.7919 82.8157 54.6577 82.8923 54.4821C82.8881 54.4691 82.8855 54.4157 82.8848 54.3219L82.9603 54.212C82.9738 54.2078 82.9889 54.0946 83.0058 53.8726C83.1125 53.7893 83.1682 53.6923 83.1732 53.5823C83.1782 53.4724 83.1948 53.3916 83.2222 53.3397L83.2541 53.2322C83.2781 53.1234 83.2983 53.0596 83.3143 53.0402L83.5038 53.0034C83.5511 52.9888 83.5671 52.89 83.5516 52.7067C83.5364 52.5235 83.553 52.392 83.6014 52.3121C83.7237 52.2309 83.7645 52.1279 83.7236 52.0033C83.7471 51.9381 83.7982 51.8323 83.8765 51.6849L84.007 51.5363L84.0558 51.4128C84.0743 51.3783 84.121 51.254 84.196 51.0389C84.2709 50.8242 84.3517 50.6783 84.4383 50.601L84.4753 50.3727C84.5399 50.2516 84.5707 50.1753 84.5679 50.1436C84.565 50.1121 84.5939 50.058 84.6546 49.9813C84.7151 49.9052 84.7752 49.7869 84.8349 49.6277C84.8946 49.4684 84.965 49.2966 85.0463 49.1127L85.1477 49.0814L85.1754 49.0294C85.18 48.8617 85.2525 48.7075 85.3926 48.5668C85.5329 48.4258 85.642 48.2695 85.7198 48.0973C85.7975 47.9252 85.8857 47.768 85.9843 47.6252C86.0832 47.4831 86.1509 47.3663 86.1882 47.275C86.2258 47.1842 86.2569 47.1203 86.282 47.0836L86.2627 47.0244L86.2701 46.9789L86.3921 46.9412L86.4399 46.8831C86.5458 46.7278 86.6669 46.6143 86.804 46.5432C86.9409 46.4723 87.0618 46.3917 87.1665 46.3015L87.3049 46.2804C87.4131 46.247 87.5191 46.0987 87.6231 45.8352C87.727 45.5718 87.7487 45.3485 87.6884 45.1646L87.5616 44.8461C87.5271 44.7412 87.4434 44.6168 87.3107 44.4734C87.178 44.3298 87.0569 44.2627 86.9478 44.2708C86.8387 44.2792 86.7605 44.2798 86.7138 44.2725C86.6666 44.2654 86.6089 44.2723 86.5413 44.2931C86.46 44.3181 86.3683 44.3682 86.266 44.4428L86.04 44.4695C85.9248 44.5049 85.7448 44.6722 85.5 44.9717C85.4608 45.0563 85.4039 45.1333 85.3298 45.2033C85.2559 45.2729 85.1033 45.4446 84.8726 45.7179L84.9606 45.9185L84.8646 46.0348L84.6042 46.0936C84.5496 46.132 84.5394 46.2365 84.5726 46.4067C84.3445 46.6437 84.2036 46.8332 84.1498 46.9763C84.0962 47.1194 84.039 47.2581 83.9787 47.3923C83.7442 47.7462 83.6392 47.9597 83.6629 48.0319C83.6887 48.1107 83.6618 48.2055 83.5827 48.3166C83.5037 48.4278 83.4728 48.5096 83.4899 48.5622C83.5072 48.6148 83.5751 48.6405 83.6945 48.6399C83.6975 48.7403 83.6718 48.7988 83.6178 48.8156L83.3675 48.871C83.349 48.9057 83.3044 48.9628 83.2337 49.0423L83.2133 49.0484L83.3022 49.1835C83.3064 49.1968 83.2714 49.2366 83.1964 49.303C83.1216 49.3694 83.1015 49.4554 83.1359 49.5603C83.0668 49.6899 83.0368 49.768 83.0453 49.7943L83.0969 49.9517L83.049 50.01C82.9956 49.9829 82.9553 49.9737 82.9284 49.982C82.9013 49.9902 82.8057 50.1862 82.6414 50.5693C82.477 50.9524 82.4014 51.1637 82.4142 51.2029C82.4338 51.262 82.4922 51.2873 82.5902 51.2788C82.6881 51.2703 82.7478 51.2993 82.7693 51.3646C82.7778 51.3909 82.7465 51.4438 82.676 51.5235C82.6366 51.4488 82.6032 51.4157 82.5765 51.424C82.4814 51.4532 82.389 51.5471 82.2987 51.7049L82.2583 51.7175C82.1768 51.7424 82.1312 51.8197 82.1213 51.9492C82.1116 52.0788 82.0428 52.3007 81.9143 52.6147C81.7861 52.929 81.7157 53.1584 81.7033 53.3032C81.691 53.4478 81.6428 53.6363 81.5583 53.8682C81.4739 54.1005 81.4586 54.2986 81.5123 54.4627C81.521 54.4887 81.5323 54.5 81.5459 54.4957C81.6442 54.5234 81.7087 54.5828 81.7389 54.6748C81.7625 54.7471 81.7473 54.7914 81.6931 54.8081C81.6794 54.8123 81.6523 54.7973 81.6108 54.7629C81.5699 54.7285 81.5119 54.7228 81.4375 54.7458C81.3969 54.7582 81.3705 54.8155 81.359 54.9164C81.3473 55.0176 81.3144 55.1673 81.2597 55.3645C81.0805 55.6148 81.0144 55.8124 81.0618 55.9567L80.858 56.5293L80.8582 56.5295Z"
            fill="white"
        />
        <path
            fillRule="evenodd"
            clipRule="evenodd"
            d="M79.5482 55.8813L79.6113 54.5393C79.6495 54.3827 79.644 54.2292 79.5944 54.0781C79.5816 54.0387 79.616 53.9793 79.6981 53.8999C79.78 53.82 79.8019 53.6313 79.7635 53.3322L79.8139 53.136C79.4519 53.1628 79.0665 53.2723 78.7629 53.272C78.6996 53.2719 78.6362 53.2718 78.5729 53.2717C78.5395 53.2994 78.4801 53.3263 78.3946 53.3527C78.3743 53.359 78.3662 53.414 78.3702 53.5175C78.3745 53.6212 78.34 53.789 78.2672 54.0211C78.1939 54.2533 78.1644 54.4357 78.1781 54.5688C78.1919 54.7018 78.1807 54.7975 78.144 54.8558C78.107 54.9143 78.1002 54.9902 78.1235 55.0844C78.1469 55.1785 78.1521 55.2618 78.1386 55.3345C78.1252 55.4076 78.1293 55.4767 78.1509 55.5423C78.1638 55.5815 78.1876 55.6323 78.2227 55.6935C78.0803 55.7594 78.0286 55.851 78.0673 55.9692L78.1778 56.2386C78.1952 56.2913 78.1603 56.3563 78.074 56.4333C78.0542 56.5553 78.0529 56.6422 78.0701 56.6947L78.0741 56.7007C78.319 56.6829 78.5629 56.6559 78.8035 56.6167C79.0428 56.5776 79.27 56.5087 79.4806 56.415C79.5176 56.166 79.5401 55.9882 79.5482 55.8814L79.5482 55.8813Z"
            fill="white"
        />
        <path
            fillRule="evenodd"
            clipRule="evenodd"
            d="M78.7628 53.272C79.0665 53.2723 79.4519 53.1627 79.8139 53.136L79.8422 53.0259C79.8977 52.9003 79.9236 52.831 79.9192 52.8179C79.884 52.6192 79.9201 52.3658 80.0278 52.0578L80.1249 51.6376C80.1676 51.4946 80.178 51.3902 80.1565 51.3243L80.1999 51.1158C80.1902 50.9959 80.2019 50.895 80.2346 50.8124C80.2656 50.7343 80.3267 50.5215 80.4171 50.1737C80.2996 50.2047 80.1615 50.2255 79.9998 50.2345C79.5152 50.2615 79.0594 50.2384 78.6585 50.1279C78.6567 50.1547 78.6546 50.184 78.6522 50.2158L78.7112 50.3277C78.7198 50.3541 78.7079 50.4082 78.6752 50.4906L78.6119 50.6727C78.6324 50.9628 78.6151 51.2338 78.5596 51.4858C78.5043 51.7378 78.4909 51.9065 78.5188 51.9918L78.6314 52.1307C78.5095 52.1681 78.4798 52.2822 78.5421 52.4724C78.3883 52.7079 78.3339 52.8943 78.379 53.0322L78.4187 53.0852C78.5238 53.1105 78.5854 53.1496 78.6023 53.2019C78.6101 53.2257 78.6004 53.249 78.5729 53.2718C78.6362 53.2719 78.6995 53.2719 78.7628 53.272V53.272Z"
            fill="white"
        />
        <path
            fillRule="evenodd"
            clipRule="evenodd"
            d="M78.6585 50.1281C79.0594 50.2385 79.5152 50.2617 79.9998 50.2347C80.1615 50.2257 80.2996 50.2049 80.4171 50.1739C80.4219 50.1554 80.4268 50.1366 80.4317 50.1174C80.5305 49.7365 80.5669 49.5067 80.5413 49.4279C80.5281 49.3885 80.5107 49.3578 80.4886 49.3359C80.6499 49.2137 80.6638 48.9494 80.5302 48.5422C80.4441 48.2796 80.2713 48.1214 80.0112 48.068C79.7513 48.0144 79.5954 48.0099 79.5429 48.055L77.7212 49.583C77.8794 49.7526 78.0628 49.8834 78.2667 49.9823C78.3337 49.9017 78.4227 49.8364 78.5337 49.7863C78.5987 49.8025 78.643 49.8466 78.6666 49.9187C78.6701 49.9298 78.6674 49.9996 78.6586 50.1281H78.6585Z"
            fill="white"
        />
        <path
            fillRule="evenodd"
            clipRule="evenodd"
            d="M76.5218 53.2692C76.0803 53.2687 75.6389 53.2681 75.1974 53.2676C75.197 53.3015 75.2011 53.3318 75.2098 53.3586C75.3563 53.8052 75.6529 53.9595 76.0997 53.8216C76.3896 53.7323 76.5302 53.5482 76.5218 53.2692V53.2692Z"
            fill="white"
        />
        <path
            fillRule="evenodd"
            clipRule="evenodd"
            d="M75.1974 53.2675C75.6388 53.268 76.0803 53.2686 76.5218 53.2692C76.5214 53.255 76.5206 53.2407 76.5193 53.2261C76.4942 52.9229 76.4891 52.7366 76.5037 52.6672L76.5817 52.3937C76.6147 52.2679 76.7003 52.1024 76.8381 51.8974C76.976 51.6921 77.1638 51.4299 77.4023 51.1109L77.6225 50.7934C77.7187 50.5183 77.8207 50.3637 77.9291 50.3304L78.1224 50.2709L78.1467 50.2092C78.1721 50.1235 78.2121 50.0479 78.2667 49.9823C78.0629 49.8835 77.8795 49.7526 77.7212 49.583L77.6222 49.6661C77.5545 49.6872 77.462 49.7806 77.3449 49.9466L77.2725 50.0665C77.0931 50.2014 76.9664 50.3488 76.8922 50.509C76.8177 50.6693 76.7366 50.7739 76.6483 50.8226C76.56 50.8719 76.4924 50.9668 76.4454 51.1075C76.3982 51.2488 76.3364 51.3382 76.2594 51.3763C76.1056 51.6119 76.0271 51.7699 76.0239 51.8503C75.9695 51.8671 75.87 51.9842 75.7254 52.2023L75.5355 52.5102C75.3123 52.849 75.1997 53.1015 75.1974 53.2676L75.1974 53.2675Z"
            fill="white"
        />
    </svg>